<?xml version="1.0" standalone="no"?>
<!DOCTYPE svg PUBLIC "-//W3C//DTD SVG 20010904//EN"
 "http://www.w3.org/TR/2001/REC-SVG-20010904/DTD/svg10.dtd">
<svg version="1.0" xmlns="http://www.w3.org/2000/svg"
 width="181.000000pt" height="129.000000pt" viewBox="0 0 181.000000 129.000000"
 preserveAspectRatio="xMidYMid meet">

<g transform="translate(0.000000,129.000000) scale(0.100000,-0.100000)"
fill="#000000" stroke="none">
<path d="M543 1253 c15 -2 37 -2 50 0 12 2 0 4 -28 4 -27 0 -38 -2 -22 -4z"/>
<path d="M663 1253 c15 -2 37 -2 50 0 12 2 0 4 -28 4 -27 0 -38 -2 -22 -4z"/>
<path d="M455 1240 c-25 -11 1 -11 35 0 20 6 21 8 5 8 -11 0 -29 -3 -40 -8z"/>
<path d="M748 1243 c7 -3 16 -2 19 1 4 3 -2 6 -13 5 -11 0 -14 -3 -6 -6z"/>
<path d="M838 1217 c59 -23 142 -71 142 -82 0 -3 -17 3 -37 14 -153 77 -362
76 -528 -2 -290 -138 -424 -489 -294 -772 13 -27 25 -54 27 -60 14 -32 -40 50
-66 100 -17 33 -31 56 -32 51 0 -4 17 -40 37 -80 44 -83 168 -214 256 -270
168 -107 375 -129 565 -60 39 14 74 30 77 34 3 5 -2 24 -11 43 l-17 35 -64
-30 c-96 -43 -200 -56 -301 -36 -45 9 -107 28 -138 42 -57 26 -135 82 -132 94
1 4 -23 32 -54 63 -89 90 -132 232 -111 374 39 270 295 475 566 452 80 -7 169
-34 232 -72 49 -28 114 -109 150 -186 14 -29 23 -43 19 -29 -3 14 -17 45 -30
69 -30 54 -26 63 8 19 62 -81 108 -207 108 -295 0 -59 39 -185 55 -180 15 5
23 52 24 147 2 184 -52 304 -203 455 -79 79 -117 108 -176 137 -41 21 -88 40
-105 43 -16 3 -2 -5 33 -18z"/>
<path d="M339 1193 c-89 -45 -201 -152 -247 -234 -18 -31 -32 -60 -32 -65 0
-5 17 20 37 56 55 97 151 187 253 238 47 23 80 42 74 42 -7 0 -45 -17 -85 -37z"/>
<path d="M46 865 c-3 -9 -6 -22 -5 -28 0 -7 5 -1 10 12 5 13 8 26 5 28 -2 2
-6 -3 -10 -12z"/>
<path d="M31 804 c0 -11 3 -14 6 -6 3 7 2 16 -1 19 -3 4 -6 -2 -5 -13z"/>
<path d="M1131 794 c0 -11 3 -14 6 -6 3 7 2 16 -1 19 -3 4 -6 -2 -5 -13z"/>
<path d="M22 755 c0 -16 2 -22 5 -12 2 9 2 23 0 30 -3 6 -5 -1 -5 -18z"/>
<path d="M1142 745 c0 -16 2 -22 5 -12 2 9 2 23 0 30 -3 6 -5 -1 -5 -18z"/>
<path d="M480 702 c0 -56 12 -72 55 -72 43 0 55 16 55 72 0 45 -2 48 -25 48
-23 0 -25 -4 -25 -46 0 -27 -4 -43 -10 -39 -5 3 -10 24 -10 46 0 32 -3 39 -20
39 -17 0 -20 -7 -20 -48z"/>
<path d="M610 691 c0 -54 2 -61 20 -61 14 0 20 7 21 23 l0 22 9 -22 c11 -27
27 -30 33 -5 4 16 5 16 6 0 1 -12 9 -18 26 -18 24 0 25 3 25 60 l0 60 -30 0
c-23 0 -30 -5 -30 -19 0 -29 -18 -35 -22 -9 -2 17 -11 24 -30 26 -28 3 -28 3
-28 -57z"/>
<path d="M770 690 c0 -53 2 -60 20 -60 11 0 20 7 20 15 0 8 4 15 9 15 5 0 11
-7 15 -15 6 -17 15 -19 35 -6 11 7 11 12 -2 31 -14 20 -14 25 -1 45 23 35 -16
52 -42 18 -13 -17 -13 -17 -14 0 0 10 -8 17 -20 17 -18 0 -20 -7 -20 -60z"/>
<path d="M890 690 c0 -57 1 -60 25 -60 19 0 25 5 26 23 l0 22 9 -22 c5 -13 12
-23 15 -23 3 0 10 10 15 23 l9 22 0 -22 c1 -16 7 -23 21 -23 18 0 20 7 20 60
0 57 -1 60 -24 60 -18 0 -27 -8 -34 -27 l-10 -28 -7 28 c-6 21 -13 27 -36 27
-29 0 -29 0 -29 -60z"/>
<path d="M272 718 c-16 -16 -15 -63 2 -77 17 -14 82 -11 79 4 -1 6 -12 13 -25
16 -22 5 -22 5 5 12 22 6 28 13 25 30 -2 17 -11 23 -38 25 -19 2 -41 -3 -48
-10z m48 -18 c0 -5 -5 -10 -11 -10 -5 0 -7 5 -4 10 3 6 8 10 11 10 2 0 4 -4 4
-10z"/>
<path d="M13 665 c0 -27 2 -38 4 -22 2 15 2 37 0 50 -2 12 -4 0 -4 -28z"/>
<path d="M1153 670 c0 -25 2 -35 4 -22 2 12 2 32 0 45 -2 12 -4 2 -4 -23z"/>
<path d="M380 674 c0 -11 9 -14 37 -12 52 4 56 28 4 28 -30 0 -41 -4 -41 -16z"/>
<path d="M425 570 c0 -38 4 -50 15 -50 12 0 14 11 12 50 -5 67 -27 67 -27 0z"/>
<path d="M22 585 c0 -16 5 -48 13 -70 17 -52 17 -35 0 40 -8 37 -13 49 -13 30z"/>
<path d="M262 565 c0 -31 2 -43 7 -32 6 17 8 17 20 3 21 -25 33 -19 16 8 -14
21 -14 25 0 36 8 7 15 17 15 23 0 5 -8 3 -18 -6 -23 -21 -29 -21 -35 1 -3 9
-5 -5 -5 -33z"/>
<path d="M680 563 c1 -38 3 -44 11 -30 5 9 16 17 23 17 19 0 29 30 15 46 -6 8
-20 14 -30 14 -16 0 -19 -8 -19 -47z m38 16 c-2 -6 -8 -10 -13 -10 -5 0 -11 4
-13 10 -2 6 4 11 13 11 9 0 15 -5 13 -11z"/>
<path d="M341 558 c-1 -37 10 -48 42 -40 12 3 17 14 17 39 0 20 -4 32 -10 28
-5 -3 -10 -18 -10 -31 0 -35 -23 -26 -31 12 -6 28 -7 27 -8 -8z"/>
<path d="M486 574 c-9 -8 -16 -19 -16 -24 0 -8 28 -40 35 -40 20 0 35 17 35
40 0 16 -7 30 -16 34 -21 8 -20 8 -38 -10z m39 -24 c0 -22 -29 -18 -33 3 -3
14 1 18 15 15 10 -2 18 -10 18 -18z"/>
<path d="M565 582 c-3 -3 -5 -18 -5 -34 0 -33 17 -38 22 -6 5 32 28 35 28 4 0
-14 5 -26 11 -26 6 0 9 14 7 33 -3 27 -7 32 -30 33 -15 1 -30 -1 -33 -4z"/>
<path d="M761 550 c1 -24 3 -28 6 -12 3 13 11 26 19 29 21 8 17 19 -6 19 -16
0 -20 -6 -19 -36z"/>
<path d="M823 583 c-17 -6 -16 -48 1 -62 30 -25 71 24 46 54 -13 15 -25 17
-47 8z m37 -33 c0 -11 -6 -20 -14 -20 -18 0 -29 16 -21 30 11 18 35 11 35 -10z"/>
<path d="M906 575 c-19 -19 -19 -21 -6 -45 6 -11 17 -17 25 -14 8 4 15 1 15
-5 0 -6 -10 -11 -22 -11 -15 0 -19 -3 -12 -10 15 -15 43 -1 50 25 15 58 -15
94 -50 60z m34 -25 c0 -11 -7 -20 -15 -20 -8 0 -15 9 -15 20 0 11 7 20 15 20
8 0 15 -9 15 -20z"/>
<path d="M993 583 c-25 -10 -9 -73 18 -73 10 0 39 30 39 40 0 11 -29 40 -38
39 -4 0 -13 -3 -19 -6z m37 -33 c0 -21 -24 -28 -35 -10 -8 14 3 30 21 30 8 0
14 -9 14 -20z"/>
<path d="M880 224 c-30 -19 -50 -34 -44 -34 5 0 34 16 64 35 30 19 51 34 45
34 -5 -1 -35 -16 -65 -35z"/>
<path d="M1056 235 c-9 -26 -7 -32 5 -12 6 10 9 21 6 23 -2 3 -7 -2 -11 -11z"/>
<path d="M330 235 c0 -6 76 -45 87 -45 4 0 -12 11 -36 25 -44 26 -51 28 -51
20z"/>
<path d="M440 180 c8 -5 22 -9 30 -9 10 0 8 3 -5 9 -27 12 -43 12 -25 0z"/>
<path d="M785 180 c-13 -6 -15 -9 -5 -9 8 0 22 4 30 9 18 12 2 12 -25 0z"/>
<path d="M498 163 c7 -3 16 -2 19 1 4 3 -2 6 -13 5 -11 0 -14 -3 -6 -6z"/>
<path d="M738 163 c7 -3 16 -2 19 1 4 3 -2 6 -13 5 -11 0 -14 -3 -6 -6z"/>
<path d="M578 153 c29 -2 74 -2 100 0 26 2 2 3 -53 3 -55 0 -76 -1 -47 -3z"/>
</g>
</svg>
