<svg width="38" height="40" viewBox="0 0 61 63" fill="none" xmlns="http://www.w3.org/2000/svg">
<g clip-path="url(#clip0_101_439)">
<path d="M34.1854 26.1117L34.4396 28.695C35.9646 28.695 37.3625 29.2117 38.5062 30.1159C38.7604 30.3742 39.0146 30.5034 39.2688 30.7617C39.9042 31.4075 40.5396 32.3117 40.7937 33.2159L43.2083 32.3117C42.7 31.1492 42.0646 29.9867 41.0479 29.0825C40.6667 28.695 40.2854 28.4367 40.0313 28.1784C38.3792 27.0159 36.6 26.2409 34.6937 26.2409C34.4396 26.1117 34.3125 26.1117 34.1854 26.1117Z" fill="#4BAF4F"/>
<path d="M53.2479 48.5866L54.3917 47.4241L49.8167 42.7741L47.6563 44.9699V42.1282C49.1813 39.2866 49.5625 35.9282 49.0542 32.6991C48.8 31.2782 48.2917 29.8574 47.6563 28.6949V17.9741L46.8938 17.1991L35.5833 5.70324L30.8813 0.924072H6.48126C3.17709 0.924072 0.635422 3.63657 0.635422 6.86574V55.5616C0.635422 58.9199 3.30417 61.5032 6.48126 61.5032H41.8104C44.9875 61.5032 47.6563 58.7907 47.6563 55.5616V54.2699L47.7833 54.1407L54.0104 60.4699C54.6458 61.1157 55.5354 61.5032 56.2979 61.5032C57.1875 61.5032 57.95 61.1157 58.5854 60.4699L59.3479 59.6949C60.6188 58.4032 60.6188 56.3366 59.3479 55.0449L53.2479 48.5866ZM35.2021 23.2699C35.8375 23.2699 36.3458 23.3991 36.9813 23.5282C37.8708 23.6574 38.6333 23.9157 39.5229 24.3032C40.4125 24.6907 41.3021 25.2074 41.9375 25.7241C42.3188 25.9824 42.7 26.3699 43.2083 26.8866C43.7167 27.4032 44.225 28.0491 44.6063 28.6949C44.8604 28.9532 44.9875 29.3407 45.2417 29.7282C45.8771 30.7616 46.2583 32.0532 46.5125 33.3449C47.0208 36.0574 46.5125 38.8991 45.2417 41.3532C44.7333 42.3866 43.9708 43.2907 43.2083 44.1949C42.0646 45.3574 40.7938 46.1324 39.5229 46.7782C36.9813 47.9407 34.1854 48.0699 31.5167 47.2949C29.6104 46.7782 27.8313 45.6157 26.3063 44.1949C26.0521 43.9366 25.7979 43.5491 25.5438 43.2907C25.1625 42.9032 24.9083 42.5157 24.6542 41.9991C24.1458 41.0949 23.6375 40.1907 23.3833 39.1574C22.1125 34.8949 23.1292 30.1157 26.3063 26.8866C26.4333 26.7574 26.4333 26.7574 26.5604 26.6282C26.8146 26.3699 26.9417 26.2407 27.1958 26.1116C29.2292 24.3032 31.7708 23.2699 34.4396 23.2699C34.5667 23.2699 34.6938 23.2699 34.8208 23.2699C34.9479 23.2699 35.075 23.1407 35.2021 23.2699ZM31.5167 5.05741L34.1854 7.76991L43.3354 17.0699H34.8208C33.0417 17.0699 31.5167 15.5199 31.5167 13.7116V5.05741ZM50.7063 47.4241L46.6396 51.6866L45.75 50.6532L49.8167 46.5199L50.7063 47.4241ZM41.8104 58.7907H6.48126C4.57501 58.7907 3.17709 57.2407 3.17709 55.4324V6.60741C3.17709 4.66991 4.70209 3.24907 6.48126 3.24907H28.975V13.7116C28.975 17.0699 31.6438 19.6532 34.8208 19.6532H45.1146V24.9491C45.1146 24.9491 45.1146 24.8199 44.9875 24.8199C44.4792 24.3032 43.9708 23.7866 43.4625 23.3991C42.5729 22.7532 41.5563 22.1074 40.5396 21.5907C39.5229 21.2032 38.5063 20.8157 37.4896 20.6866C36.7271 20.6866 35.9646 20.6866 35.4563 20.6866C35.3292 20.6866 35.075 20.5574 34.9479 20.6866C31.1354 20.6866 27.45 22.1074 24.7813 24.8199L24.6542 24.9491C24.4 25.2074 24.2729 25.3366 24.1458 25.5949H8.51459V28.1782H22.1125C21.0958 29.9866 20.5875 31.9241 20.3333 33.8616H8.51459V36.4449H20.3333C20.4604 37.4782 20.5875 38.5116 20.8417 39.4157C21.0958 40.3199 21.4771 41.2241 21.8583 42.1282H8.51459V44.7116H23.5104C23.7646 45.0991 24.1458 45.3574 24.4 45.7449C26.1792 47.5532 28.3396 48.8449 30.7542 49.4907C31.3896 49.6199 31.8979 49.7491 32.5333 49.8782C32.6604 49.8782 32.6604 49.8782 32.7875 49.8782C33.4229 50.0074 33.9313 50.0074 34.5667 50.0074C34.5667 50.0074 34.5667 50.0074 34.6938 50.0074C34.8208 50.0074 34.8208 50.0074 34.9479 50.0074C35.3292 50.0074 35.7104 50.0074 35.9646 50.0074C36.0917 50.0074 36.2188 50.0074 36.3458 50.0074C36.7271 50.0074 36.9813 49.8782 37.3625 49.8782C37.4896 49.8782 37.6167 49.8782 37.7438 49.7491C38.125 49.6199 38.5063 49.6199 38.7604 49.4907C38.8875 49.4907 38.8875 49.4907 39.0146 49.3616C39.5229 49.2324 39.9042 49.1032 40.2854 48.8449C41.5563 48.3282 42.8271 47.5532 43.8438 46.5199L44.7333 47.4241L41.8104 50.3949L44.8604 53.4949V55.1741C45.1146 57.2407 43.7167 58.7907 41.8104 58.7907ZM57.5688 57.7574L56.8063 58.5324C56.5521 58.7907 56.0438 58.7907 55.7896 58.5324L49.5625 52.3324L51.3417 50.5241L57.5688 56.8532C57.95 56.9824 57.95 57.4991 57.5688 57.7574Z" fill="#4BAF4F"/>
<path d="M24.1458 8.9325H8.51459V11.5158H24.1458V8.9325Z" fill="#4BAF4F"/>
<path d="M24.1458 17.1992H8.51459V19.7826H24.1458V17.1992Z" fill="#4BAF4F"/>
<path d="M39.65 50.5242H8.51459V53.1075H39.65V50.5242Z" fill="#4BAF4F"/>
</g>
<defs>
<clipPath id="clip0_101_439">
<rect width="61" height="62" fill="white" transform="translate(0 0.0200195)"/>
</clipPath>
</defs>
</svg>
