<svg width="40" height="39" viewBox="0 0 49 48" fill="none" xmlns="http://www.w3.org/2000/svg">
<g clip-path="url(#clip0_101_491)">
<path d="M45.4419 47.6016L41.3169 43.4766C40.6294 43.9141 39.8716 44.25 39.0435 44.4844C38.2153 44.7188 37.3481 44.8359 36.4419 44.8359C35.1294 44.8359 33.895 44.5859 32.7388 44.0859C31.5825 43.5859 30.5669 42.8984 29.6919 42.0234C28.8169 41.1484 28.1294 40.1328 27.6294 38.9766C27.1294 37.8203 26.8794 36.5859 26.8794 35.2734C26.8794 33.9609 27.1294 32.7109 27.6294 31.5234C28.1294 30.3672 28.8169 29.3594 29.6919 28.5C30.5669 27.6406 31.5825 26.9609 32.7388 26.4609C33.895 25.9609 35.1294 25.7109 36.4419 25.7109C37.7544 25.7109 38.9888 25.9609 40.145 26.4609C41.3325 26.9609 42.356 27.6406 43.2153 28.5C44.0747 29.3594 44.7544 30.3672 45.2544 31.5234C45.7544 32.7109 46.0044 33.9609 46.0044 35.2734C46.0044 36.4609 45.7935 37.5938 45.3716 38.6719C44.9497 39.75 44.3794 40.7109 43.6606 41.5547V41.5078L47.5981 45.4453C47.7231 45.5703 47.8247 45.7266 47.9028 45.9141C47.981 46.1016 48.02 46.3047 48.02 46.5234C48.02 46.7109 47.981 46.8984 47.9028 47.0859C47.8247 47.2734 47.7231 47.4453 47.5981 47.6016C47.4419 47.7266 47.27 47.8281 47.0825 47.9062C46.895 47.9844 46.7075 48.0234 46.52 48.0234C46.52 48.0234 46.5044 48.0234 46.4731 48.0234C46.2856 48.0234 46.0981 47.9844 45.9106 47.9062C45.7231 47.8281 45.5669 47.7266 45.4419 47.6016ZM29.9263 35.2734C29.9263 37.0859 30.5591 38.625 31.8247 39.8906C33.0903 41.1562 34.6294 41.7891 36.4419 41.7891C38.2544 41.7891 39.7935 41.1562 41.0591 39.8906C42.3247 38.625 42.9575 37.0859 42.9575 35.2734C42.9575 33.4609 42.3247 31.9141 41.0591 30.6328C39.7935 29.3516 38.2544 28.7109 36.4419 28.7109C34.6294 28.7422 33.0903 29.3906 31.8247 30.6562C30.5591 31.9219 29.9263 33.4609 29.9263 35.2734ZM3.95752 46.6172C2.86377 46.6172 1.93408 46.2344 1.16846 45.4688C0.402832 44.7031 0.0200195 43.7734 0.0200195 42.6797V30.8203C0.0200195 29.7266 0.402832 28.7969 1.16846 28.0312C1.93408 27.2656 2.86377 26.8828 3.95752 26.8828H15.8169C16.9106 26.8828 17.8403 27.2656 18.606 28.0312C19.3716 28.7969 19.7544 29.7266 19.7544 30.8203V42.6797C19.7544 43.7734 19.3716 44.7031 18.606 45.4688C17.8403 46.2344 16.9106 46.6172 15.8169 46.6172H3.95752ZM3.06689 30.8203V42.6797C3.06689 42.9297 3.15283 43.1406 3.32471 43.3125C3.49658 43.4844 3.70752 43.5859 3.95752 43.6172H15.8169C16.0669 43.6172 16.2778 43.5234 16.4497 43.3359C16.6216 43.1484 16.7075 42.9297 16.7075 42.6797V30.8203C16.7075 30.5703 16.6216 30.3594 16.4497 30.1875C16.2778 30.0156 16.0669 29.9297 15.8169 29.9297H3.95752C3.70752 29.9297 3.49658 30.0156 3.32471 30.1875C3.15283 30.3594 3.06689 30.5703 3.06689 30.8203ZM30.8169 20.3203C29.7231 20.3203 28.7935 19.9375 28.0278 19.1719C27.2622 18.4062 26.8794 17.4766 26.8794 16.3828V4.52344C26.8794 3.42969 27.2622 2.5 28.0278 1.73438C28.7935 0.96875 29.7231 0.585938 30.8169 0.585938H42.6763C43.77 0.585938 44.6997 0.96875 45.4653 1.73438C46.231 2.5 46.6138 3.42969 46.6138 4.52344V16.3828C46.6138 17.4766 46.231 18.4062 45.4653 19.1719C44.6997 19.9375 43.77 20.3203 42.6763 20.3203H30.8169ZM29.9263 4.52344V16.3828C29.9263 16.6328 30.0122 16.8437 30.1841 17.0156C30.356 17.1875 30.5669 17.2734 30.8169 17.2734H42.6763C42.9263 17.2734 43.1372 17.1875 43.3091 17.0156C43.481 16.8437 43.5669 16.6328 43.5669 16.3828V4.52344C43.5669 4.27344 43.481 4.0625 43.3091 3.89062C43.1372 3.71875 42.9263 3.63281 42.6763 3.63281H30.8169C30.5669 3.63281 30.356 3.71875 30.1841 3.89062C30.0122 4.0625 29.9263 4.27344 29.9263 4.52344ZM3.95752 20.3203C2.86377 20.3203 1.93408 19.9375 1.16846 19.1719C0.402832 18.4062 0.0200195 17.4766 0.0200195 16.3828V4.52344C0.0200195 3.42969 0.402832 2.5 1.16846 1.73438C1.93408 0.96875 2.86377 0.585938 3.95752 0.585938H15.8169C16.9106 0.585938 17.8403 0.96875 18.606 1.73438C19.3716 2.5 19.7544 3.42969 19.7544 4.52344V16.3828C19.7544 17.4766 19.3716 18.4062 18.606 19.1719C17.8403 19.9375 16.9106 20.3203 15.8169 20.3203H3.95752ZM3.06689 4.52344V16.3828C3.06689 16.6328 3.15283 16.8437 3.32471 17.0156C3.49658 17.1875 3.70752 17.2734 3.95752 17.2734H15.8169C16.0669 17.2734 16.2778 17.1875 16.4497 17.0156C16.6216 16.8437 16.7075 16.6328 16.7075 16.3828V4.52344C16.7075 4.27344 16.6216 4.0625 16.4497 3.89062C16.2778 3.71875 16.0669 3.63281 15.8169 3.63281H3.95752C3.70752 3.63281 3.49658 3.71875 3.32471 3.89062C3.15283 4.0625 3.06689 4.27344 3.06689 4.52344Z" fill="#4BAF4F"/>
</g>
<defs>
<clipPath id="clip0_101_491">
<rect width="48" height="48" fill="white" transform="matrix(1 0 0 -1 0.0200195 48)"/>
</clipPath>
</defs>
</svg>
